<svg xmlns="http://www.w3.org/2000/svg" viewBox="0 0 1000 1000" width="1000" height="1000"><rect width="1000" height="1000" fill="hsl(340 28% 6%)"/><path d="M 500 500 L 508.6 502.9 L 515 511.4 L 516.5 524.2 L 510.9 538.7 L 497.5 551.5 L 477 558.8 L 451.9 557.5 L 426.1 545.4 L 404.3 522.1 L 391.1 489.4 L 390.5 451 L 404.5 412 L 433.1 378.3 L 473.9 355.4 L 522.3 347.6 L 572.4 357.3 L 617.5 384.2 L 651.8 426 L 670.4 477.7 L 670.7 533.5 L 652.5 586.8 L 617.6 631.6 L 569.9 662.8 L 514.5 677.4 L 457.1 673.7 L 403.2 652.3 L 357.9 615.1 L 325.6 565 L 309.3 506.3 L 311.3 443.6 L 332.8 382 L 373.4 327.2 L 431.5 284.9 L 503.7 260.9 L 584.6 260.1 L 667.1 286.1 L 742.1 340 L 799.9 420.2 L 831.1 521.2 L 827.8 633.9 L 785.5 746.2 L 704.2 844.1 L 588.9 913.7 L 450.1 942.7 L 302.8 923.2 L 164.5 853 L 53.5 736.4 L -14.6 584.7 " fill="none" stroke="hsl(340 45% 78%)" stroke-opacity="0.7" stroke-width="0.7"/><path d="M 500 500 L 499.9 510.1 L 494.1 517.1 L 485.4 518.9 L 476.5 515.7 L 468.2 508.7 L 460 497.7 L 452.7 481 L 449.7 457.1 L 456.6 427.8 L 477.8 399.3 L 512.7 381.2 L 554.5 381.4 L 592.1 402 L 616.1 437.7 L 622.9 479 L 615.8 518.1 L 601 552.5 L 582.4 585.3 L 557.4 620.7 L 519 657.1 L 461.8 685.2 L 388.9 690.8 L 314.3 662.7 L 257.9 601.1 L 236.4 519 L 254.5 436.8 L 303.6 372.5 L 367.4 333 L 432.4 313.3 L 495.4 303.2 L 562.7 297.6 L 642 302.9 L 731.8 333.6 L 816 402.7 L 869.4 509.3 L 869.7 634.5 L 811 747.8 L 707.6 820.9 L 587.3 841.4 L 476.7 816.7 L 388.1 766.6 L 317.1 708 L 251.3 644.3 L 185.2 564.4 L 129.9 454.6 L 110.3 313.8 L 151.4 162.2 L 260.4 36.7 " fill="none" stroke="hsl(340 45% 78%)" stroke-opacity="0.6" stroke-width="0.9"/><path d="M 500 500 L 489.8 503.2 L 479 499.6 L 471.3 489.8 L 469.4 475.9 L 474.6 461.3 L 486.7 449.1 L 503.9 442.2 L 523.8 442.3 L 543.6 449.9 L 560.6 464.4 L 572.9 484.7 L 578.8 509.2 L 577.2 536.4 L 567 564.2 L 547.4 590.4 L 517.9 611.8 L 479.3 624.7 L 433.5 625.1 L 384.9 609 L 339.7 574.4 L 305.3 521.6 L 289.5 454.4 L 298.5 380 L 335.3 308.3 L 398.6 250.5 L 482.4 216.9 L 576.4 214.9 L 667.8 246.9 L 743.7 310.3 L 793.1 397.1 L 809.2 495.8 L 790.6 593.1 L 740.7 677 L 667.4 738 L 580.5 770.7 L 490.5 774.1 L 406.2 750.3 L 334.4 703.8 L 279.6 639.6 L 244.5 562.7 L 231.3 477.6 L 242.1 388.8 L 278.9 301.8 L 343.3 223.7 L 434.6 163.8 L 548.7 132.4 L 676.8 139.2 L 805.2 191.1 " fill="none" stroke="hsl(340 45% 78%)" stroke-opacity="0.5" stroke-width="2"/><path d="M 500 500 L 494.4 492.1 L 494.6 482.2 L 500.8 473.5 L 511.6 468.5 L 524.9 469 L 538.1 475.6 L 548.8 487.7 L 555 504.3 L 555.5 523.5 L 549.3 543.7 L 536 562.6 L 515.7 578.2 L 488.8 588 L 456.9 589.3 L 422.2 579.6 L 388.7 557 L 361.3 520.9 L 345.6 472.8 L 347 416.7 L 369.2 359.2 L 413.3 308.4 L 477 273.2 L 554.1 261.5 L 635.1 278.1 L 708.9 324 L 764.2 395.6 L 792 484.7 L 787.1 579.9 L 749 668.6 L 682.5 739.2 L 596.1 782.5 L 501.2 794 L 409.5 773.4 L 331.3 724.9 L 274.3 655.5 L 242.7 573.8 L 237.6 488.3 L 257.7 406.5 L 300.2 334.4 L 361.6 276.6 L 438.2 237.3 L 526.1 220.3 L 619.9 229.1 L 712.9 267.1 L 796.1 335.8 L 858.8 433.8 L 889.7 555.5 L 879 690.3 " fill="none" stroke="hsl(340 45% 78%)" stroke-opacity="0.4" stroke-width="1"/><path d="M 500 500 L 505.4 492.7 L 514.3 490 L 524 493 L 531.8 501.2 L 535.6 513.5 L 533.9 527.8 L 526.2 541.7 L 512.8 553 L 494.8 559.8 L 473.7 560.3 L 451.6 553.6 L 430.7 538.9 L 413.9 516.4 L 403.8 486.9 L 403.4 452.2 L 415.2 415.5 L 440.6 381.1 L 479.5 354.1 L 529.8 339.8 L 587.2 343.3 L 645.2 367.7 L 695.6 413.8 L 730.3 478.9 L 741.6 557.2 L 724.8 639.8 L 678.4 715.9 L 605.4 774.4 L 513.1 805.9 L 412.2 804.1 L 315.4 767.1 L 235.2 698 L 182.5 604.6 L 164.4 498.1 L 183.1 391.6 L 236.1 298 L 316.5 228 L 414 188.9 L 517.1 183.8 L 614.5 211.6 L 696.4 267.7 L 755.6 345 L 787.8 435.3 L 791.3 530 L 766.8 621.2 L 716.5 701.9 L 643.9 765.6 L 553.5 806.7 L 451.2 820.3 " fill="none" stroke="hsl(340 45% 78%)" stroke-opacity="0.3" stroke-width="0.9"/><path d="M 500 470 L 530 500 L 500 530 L 470 500 Z" fill="hsl(20 62% 58%)"/></svg>