<svg xmlns="http://www.w3.org/2000/svg" xmlns:xlink="http://www.w3.org/1999/xlink" width="512" height="512" viewBox="0 0 256 256" preserveAspectRatio="xMidYMid meet"><defs><radialGradient id="G" cx="0.5" cy="0.5" r="0.75"><stop offset="0" stop-color="#0f0c08"/><stop offset="1" stop-color="#241c14"/></radialGradient></defs><rect width="256" height="256" fill="url(#G)"/><g id="r0"><g fill="none" stroke="#e0b44a" stroke-width="5"><polygon points="214,128 128,214 42,128 128,42 " opacity="0.93"/></g><g fill="none" stroke="#3f7e72" stroke-width="4"><polygon points="232,9 240,105 144,113 136,17 " opacity="0.93"/><polygon points="255,138 204,207 135,138 204,69 " opacity="0.57"/><polygon points="229,255 133,247 141,151 237,159 " opacity="0.94"/></g><g fill="none" stroke="#ede4d0" stroke-width="3"><polygon points="172,0 235,0 190,54 127,9 " opacity="0.73"/><polygon points="255,0 255,54 187,61 180,0 " opacity="0.82"/><polygon points="255,71 255,126 200,71 255,16 " opacity="0.28"/><polygon points="255,35 255,112 215,119 208,42 " opacity="0.91"/><polygon points="255,131 247,186 192,131 247,76 " opacity="0.73"/><polygon points="255,236 210,229 217,152 255,159 " opacity="0.67"/><polygon points="255,200 246,255 191,200 246,145 " opacity="0.83"/><polygon points="255,255 191,255 198,213 255,220 " opacity="0.92"/><polygon points="165,255 120,246 183,201 228,255 " opacity="0.93"/></g><g fill="none" stroke="#a8492a" stroke-width="2"><polygon points="85,0 145,0 161,22 101,38 " opacity="0.62"/><polygon points="174,0 224,0 188,45 138,9 " opacity="0.71"/><polygon points="254,0 255,29 198,34 193,0 " opacity="0.26"/><polygon points="213,0 255,0 227,43 177,7 " opacity="0.62"/><polygon points="255,0 255,31 227,36 222,0 " opacity="0.29"/><polygon points="255,13 247,57 203,13 247,0 " opacity="0.76"/><polygon points="255,0 255,59 222,64 217,3 " opacity="0.39"/><polygon points="255,69 252,113 208,69 252,25 " opacity="0.28"/><polygon points="255,157 222,152 227,91 255,96 " opacity="0.92"/><polygon points="233,0 255,11 247,61 197,25 " opacity="0.38"/><polygon points="255,3 255,64 227,69 222,8 " opacity="0.68"/><polygon points="255,88 248,132 204,88 248,44 " opacity="0.40"/><polygon points="255,53 255,114 227,119 222,58 " opacity="0.37"/><polygon points="255,125 244,169 200,125 244,81 " opacity="0.77"/><polygon points="255,196 222,191 227,130 255,135 " opacity="0.77"/><polygon points="255,183 255,227 211,183 255,139 " opacity="0.27"/><polygon points="255,255 211,255 216,207 255,212 " opacity="0.47"/><polygon points="241,255 205,245 255,209 255,255 " opacity="0.79"/><polygon points="255,118 255,179 227,184 222,123 " opacity="0.42"/><polygon points="255,192 252,236 208,192 252,148 " opacity="0.52"/><polygon points="255,255 214,255 219,203 255,208 " opacity="0.92"/><polygon points="255,254 255,255 211,254 255,210 " opacity="0.45"/><polygon points="255,255 222,255 227,222 255,227 " opacity="0.85"/><polygon points="207,255 171,248 221,212 255,255 " opacity="0.72"/><polygon points="231,255 170,255 175,222 236,227 " opacity="0.59"/><polygon points="162,255 126,248 176,212 212,255 " opacity="0.26"/><polygon points="79,255 95,217 155,233 139,255 " opacity="0.59"/></g></g><use href="#r0" xlink:href="#r0" transform="rotate(60,128,128)"/><use href="#r0" xlink:href="#r0" transform="rotate(120,128,128)"/><use href="#r0" xlink:href="#r0" transform="rotate(180,128,128)"/><use href="#r0" xlink:href="#r0" transform="rotate(240,128,128)"/><use href="#r0" xlink:href="#r0" transform="rotate(300,128,128)"/><g id="r1"><g fill="none" stroke="#3f7e72" stroke-width="5"><polygon points="210,128 128,210 46,128 128,46 " opacity="0.47"/></g><g fill="none" stroke="#ede4d0" stroke-width="4"><polygon points="102,130 85,143 72,126 89,113 " opacity="0.47"/><polygon points="184,130 167,143 154,126 171,113 " opacity="0.87"/></g></g><use href="#r1" xlink:href="#r1" transform="rotate(120,128,128)"/><use href="#r1" xlink:href="#r1" transform="rotate(240,128,128)"/></svg>