<svg xmlns="http://www.w3.org/2000/svg" xmlns:xlink="http://www.w3.org/1999/xlink" width="512" height="512" viewBox="0 0 256 256" preserveAspectRatio="xMidYMid meet"><defs><linearGradient id="G" x1="0" y1="0" x2="0" y2="1"><stop offset="0" stop-color="#0b0c10"/><stop offset="1" stop-color="#161a20"/></linearGradient></defs><rect width="256" height="256" fill="url(#G)"/><g id="f0" fill="#8c6a3f"><rect x="46" y="4" width="160" height="28" opacity="0.60"/><rect x="42" y="34" width="188" height="28" opacity="0.56"/><rect x="21" y="66" width="198" height="28" opacity="0.75"/><rect x="51" y="104" width="160" height="28" opacity="0.44"/><rect x="52" y="138" width="140" height="28" opacity="0.39"/><rect x="24" y="168" width="194" height="28" opacity="0.29"/><rect x="62" y="193" width="126" height="28" opacity="0.94"/><rect x="59" y="226" width="128" height="28" opacity="0.72"/></g><g id="f1" fill="none" stroke="#d8cbb0" stroke-width="7"><line x1="7" y1="28" x2="223" y2="28" opacity="0.83"/><line x1="45" y1="19" x2="255" y2="19" opacity="0.81"/><line x1="22" y1="50" x2="238" y2="50" opacity="0.45"/><line x1="21" y1="29" x2="237" y2="29" opacity="0.80"/><line x1="7" y1="84" x2="223" y2="84" opacity="0.30"/><line x1="8" y1="55" x2="224" y2="55" opacity="0.34"/><line x1="45" y1="91" x2="255" y2="91" opacity="0.79"/><line x1="6" y1="102" x2="222" y2="102" opacity="0.67"/><line x1="5" y1="94" x2="221" y2="94" opacity="0.13"/><line x1="11" y1="152" x2="227" y2="152" opacity="0.80"/><line x1="41" y1="131" x2="255" y2="131" opacity="0.35"/><line x1="47" y1="157" x2="255" y2="157" opacity="0.82"/><line x1="29" y1="192" x2="245" y2="192" opacity="0.29"/><line x1="8" y1="164" x2="224" y2="164" opacity="0.31"/><line x1="19" y1="199" x2="235" y2="199" opacity="0.20"/><line x1="47" y1="231" x2="255" y2="231" opacity="0.82"/><line x1="0" y1="243" x2="207" y2="243" opacity="0.21"/><line x1="5" y1="212" x2="221" y2="212" opacity="0.30"/><line x1="51" y1="247" x2="255" y2="247" opacity="0.24"/></g><g id="f2" fill="none" stroke="#a33b24" stroke-width="5"><path d="M166,132 A10,10 0 0 1 186,132 " opacity="0.80"/><path d="M172,137 A10,10 0 0 1 190,141 " opacity="0.30"/><path d="M167,150 A10,10 0 0 1 183,158 " opacity="0.19"/><path d="M161,152 A10,10 0 0 1 175,164 " opacity="0.48"/><path d="M152,162 A10,10 0 0 1 162,178 " opacity="0.13"/><path d="M139,162 A10,10 0 0 1 145,180 " opacity="0.12"/><path d="M132,167 A10,10 0 0 1 134,185 " opacity="0.74"/><path d="M126,168 A10,10 0 0 1 124,186 " opacity="0.49"/><path d="M110,163 A10,10 0 0 1 104,181 " opacity="0.83"/><path d="M105,163 A10,10 0 0 1 95,179 " opacity="0.20"/><path d="M94,157 A10,10 0 0 1 80,169 " opacity="0.41"/><path d="M94,150 A10,10 0 0 1 78,158 " opacity="0.75"/><path d="M89,137 A10,10 0 0 1 71,141 " opacity="0.94"/><path d="M87,132 A10,10 0 0 1 67,132 " opacity="0.31"/><path d="M92,118 A10,10 0 0 1 74,114 " opacity="0.91"/><path d="M87,109 A10,10 0 0 1 71,101 " opacity="0.94"/><path d="M99,101 A10,10 0 0 1 85,89 " opacity="0.63"/><path d="M106,96 A10,10 0 0 1 96,80 " opacity="0.35"/><path d="M111,86 A10,10 0 0 1 105,68 " opacity="0.70"/><path d="M120,88 A10,10 0 0 1 118,70 " opacity="0.65"/><path d="M129,91 A10,10 0 0 1 131,73 " opacity="0.12"/><path d="M145,91 A10,10 0 0 1 151,73 " opacity="0.12"/><path d="M150,93 A10,10 0 0 1 160,77 " opacity="0.47"/><path d="M158,96 A10,10 0 0 1 172,84 " opacity="0.84"/><path d="M166,106 A10,10 0 0 1 182,98 " opacity="0.50"/><path d="M166,118 A10,10 0 0 1 184,114 " opacity="0.54"/></g></svg>