<svg xmlns="http://www.w3.org/2000/svg" viewBox="0 0 1000 1000" width="1000" height="1000"><rect width="1000" height="1000" fill="#100b08"/><line x1="137.59" y1="125.22" x2="198.05" y2="125.22" stroke="#e3cdb8" stroke-opacity="0.3" stroke-width="0.63"/><line x1="273.12" y1="97.48" x2="273.12" y2="140.91" stroke="#e3cdb8" stroke-opacity="0.3" stroke-width="0.63"/><line x1="353.31" y1="107.72" x2="353.31" y2="160.86" stroke="#e3cdb8" stroke-opacity="0.3" stroke-width="0.63"/><line x1="444.79" y1="99.55" x2="444.79" y2="177.15" stroke="#e3cdb8" stroke-opacity="0.3" stroke-width="0.63"/><line x1="547.3" y1="117.73" x2="547.3" y2="179.93" stroke="#e3cdb8" stroke-opacity="0.3" stroke-width="0.63"/><line x1="607.96" y1="136.29" x2="671.27" y2="136.29" stroke="#e3cdb8" stroke-opacity="0.3" stroke-width="0.63"/><line x1="740.85" y1="129.15" x2="806.58" y2="129.15" stroke="#e3cdb8" stroke-opacity="0.3" stroke-width="0.63"/><line x1="833.15" y1="119.47" x2="906.75" y2="119.47" stroke="#e3cdb8" stroke-opacity="0.3" stroke-width="0.63"/><line x1="131.48" y1="184.8" x2="131.48" y2="264.31" stroke="#e3cdb8" stroke-opacity="0.3" stroke-width="0.63"/><line x1="365.2" y1="245.91" x2="365.2" y2="299.32" stroke="#e3cdb8" stroke-opacity="0.3" stroke-width="0.63"/><line x1="432.41" y1="243.6" x2="432.41" y2="311.29" stroke="#e3cdb8" stroke-opacity="0.3" stroke-width="0.63"/><line x1="604.59" y1="273.7" x2="684.48" y2="273.7" stroke="#e3cdb8" stroke-opacity="0.3" stroke-width="0.63"/><line x1="694.06" y1="243.58" x2="743.03" y2="243.58" stroke="#e3cdb8" stroke-opacity="0.3" stroke-width="0.63"/><line x1="832.55" y1="231.54" x2="832.55" y2="290.12" stroke="#e3cdb8" stroke-opacity="0.3" stroke-width="0.63"/><line x1="159.76" y1="316.43" x2="159.76" y2="393.62" stroke="#e3cdb8" stroke-opacity="0.3" stroke-width="0.63"/><line x1="199.07" y1="364.79" x2="237.66" y2="364.79" stroke="#e3cdb8" stroke-opacity="0.3" stroke-width="0.63"/><line x1="358.24" y1="338.65" x2="358.24" y2="423.08" stroke="#e3cdb8" stroke-opacity="0.3" stroke-width="0.63"/><line x1="476.68" y1="349.74" x2="476.68" y2="398.1" stroke="#e3cdb8" stroke-opacity="0.3" stroke-width="0.63"/><line x1="498.07" y1="346.76" x2="580.5" y2="346.76" stroke="#e3cdb8" stroke-opacity="0.3" stroke-width="0.63"/><line x1="637.32" y1="310.5" x2="637.32" y2="361.5" stroke="#e3cdb8" stroke-opacity="0.3" stroke-width="0.63"/><line x1="705.22" y1="381.14" x2="763.69" y2="381.14" stroke="#e3cdb8" stroke-opacity="0.3" stroke-width="0.63"/><line x1="855.63" y1="302.14" x2="855.63" y2="377.5" stroke="#e3cdb8" stroke-opacity="0.3" stroke-width="0.63"/><line x1="175.03" y1="427.12" x2="175.03" y2="511.93" stroke="#e3cdb8" stroke-opacity="0.3" stroke-width="0.63"/><line x1="204.43" y1="460.64" x2="240.49" y2="460.64" stroke="#e3cdb8" stroke-opacity="0.3" stroke-width="0.63"/><line x1="369.1" y1="434.69" x2="369.1" y2="483.48" stroke="#e3cdb8" stroke-opacity="0.3" stroke-width="0.63"/><line x1="421.71" y1="463.81" x2="495.34" y2="463.81" stroke="#e3cdb8" stroke-opacity="0.3" stroke-width="0.63"/><line x1="581.15" y1="444.77" x2="581.15" y2="513.64" stroke="#e3cdb8" stroke-opacity="0.3" stroke-width="0.63"/><line x1="669.13" y1="406.16" x2="669.13" y2="444.57" stroke="#e3cdb8" stroke-opacity="0.3" stroke-width="0.63"/><line x1="744.94" y1="449.32" x2="744.94" y2="494.42" stroke="#e3cdb8" stroke-opacity="0.3" stroke-width="0.63"/><line x1="150.83" y1="576.95" x2="212.06" y2="576.95" stroke="#e3cdb8" stroke-opacity="0.3" stroke-width="0.63"/><line x1="332.85" y1="520.88" x2="332.85" y2="579.11" stroke="#e3cdb8" stroke-opacity="0.3" stroke-width="0.63"/><line x1="438.2" y1="525.82" x2="438.2" y2="579.29" stroke="#e3cdb8" stroke-opacity="0.3" stroke-width="0.63"/><line x1="573.84" y1="526.01" x2="573.84" y2="572.31" stroke="#e3cdb8" stroke-opacity="0.3" stroke-width="0.63"/><line x1="615.81" y1="520.53" x2="688.83" y2="520.53" stroke="#e3cdb8" stroke-opacity="0.3" stroke-width="0.63"/><line x1="152.3" y1="614.75" x2="152.3" y2="660.87" stroke="#e3cdb8" stroke-opacity="0.3" stroke-width="0.63"/><line x1="345.23" y1="645.45" x2="391.13" y2="645.45" stroke="#e3cdb8" stroke-opacity="0.3" stroke-width="0.63"/><line x1="432.44" y1="649.37" x2="506.89" y2="649.37" stroke="#e3cdb8" stroke-opacity="0.3" stroke-width="0.63"/><line x1="641.39" y1="660.1" x2="708.94" y2="660.1" stroke="#e3cdb8" stroke-opacity="0.3" stroke-width="0.63"/><line x1="826.31" y1="639.83" x2="826.31" y2="715.24" stroke="#e3cdb8" stroke-opacity="0.3" stroke-width="0.63"/><line x1="146.48" y1="734.54" x2="193.23" y2="734.54" stroke="#e3cdb8" stroke-opacity="0.3" stroke-width="0.63"/><line x1="204.27" y1="778.27" x2="255.78" y2="778.27" stroke="#e3cdb8" stroke-opacity="0.3" stroke-width="0.63"/><line x1="303.83" y1="742.56" x2="360.42" y2="742.56" stroke="#e3cdb8" stroke-opacity="0.3" stroke-width="0.63"/><line x1="462.6" y1="725.51" x2="462.6" y2="781.08" stroke="#e3cdb8" stroke-opacity="0.3" stroke-width="0.63"/><line x1="515.55" y1="735.13" x2="573.55" y2="735.13" stroke="#e3cdb8" stroke-opacity="0.3" stroke-width="0.63"/><line x1="651.49" y1="727.18" x2="651.49" y2="797.58" stroke="#e3cdb8" stroke-opacity="0.3" stroke-width="0.63"/><line x1="777.25" y1="729.31" x2="777.25" y2="808.14" stroke="#e3cdb8" stroke-opacity="0.3" stroke-width="0.63"/><line x1="109.21" y1="853.73" x2="171.02" y2="853.73" stroke="#e3cdb8" stroke-opacity="0.3" stroke-width="0.63"/><line x1="268.78" y1="855.92" x2="268.78" y2="902.94" stroke="#e3cdb8" stroke-opacity="0.3" stroke-width="0.63"/><line x1="372" y1="850.35" x2="372" y2="895.21" stroke="#e3cdb8" stroke-opacity="0.3" stroke-width="0.63"/><line x1="387.59" y1="873.07" x2="470.89" y2="873.07" stroke="#e3cdb8" stroke-opacity="0.3" stroke-width="0.63"/><line x1="537.47" y1="836.79" x2="537.47" y2="872.63" stroke="#e3cdb8" stroke-opacity="0.3" stroke-width="0.63"/><line x1="802.32" y1="824.08" x2="850.84" y2="824.08" stroke="#e3cdb8" stroke-opacity="0.3" stroke-width="0.63"/><circle cx="500" cy="500" r="34.13" fill="#b4532a" fill-opacity="0.39"/></svg>